<svg width="1200" height="840" viewBox="0 0 1200 840" fill="none" xmlns="http://www.w3.org/2000/svg">
  <rect width="1200" height="840" fill="#0F172A"/>
  <rect x="68" y="72" width="1064" height="696" rx="32" fill="#F8FAFC"/>
  <rect x="108" y="118" width="360" height="604" rx="24" fill="#111827"/>
  <rect x="142" y="156" width="292" height="72" rx="16" fill="#1F2937"/>
  <rect x="162" y="179" width="126" height="14" rx="7" fill="#94A3B8"/>
  <rect x="162" y="200" width="202" height="10" rx="5" fill="#475569"/>
  <circle cx="398" cy="192" r="18" fill="#22C55E"/>
  <rect x="142" y="254" width="292" height="118" rx="18" fill="#2563EB"/>
  <rect x="164" y="282" width="102" height="12" rx="6" fill="#DBEAFE"/>
  <rect x="164" y="308" width="226" height="30" rx="8" fill="#EFF6FF"/>
  <rect x="164" y="348" width="126" height="10" rx="5" fill="#BFDBFE"/>
  <rect x="142" y="398" width="292" height="82" rx="18" fill="#F9FAFB"/>
  <rect x="164" y="422" width="150" height="12" rx="6" fill="#111827"/>
  <rect x="164" y="448" width="226" height="10" rx="5" fill="#CBD5E1"/>
  <rect x="142" y="500" width="292" height="82" rx="18" fill="#F9FAFB"/>
  <rect x="164" y="524" width="132" height="12" rx="6" fill="#111827"/>
  <rect x="164" y="550" width="226" height="10" rx="5" fill="#CBD5E1"/>
  <rect x="142" y="604" width="292" height="76" rx="18" fill="#22C55E"/>
  <rect x="164" y="631" width="160" height="14" rx="7" fill="#DCFCE7"/>
  <rect x="164" y="655" width="96" height="10" rx="5" fill="#BBF7D0"/>
  <rect x="508" y="118" width="584" height="184" rx="24" fill="#FFFFFF" stroke="#E2E8F0" stroke-width="2"/>
  <rect x="544" y="154" width="210" height="18" rx="9" fill="#0F172A"/>
  <rect x="544" y="190" width="500" height="14" rx="7" fill="#CBD5E1"/>
  <rect x="544" y="220" width="424" height="14" rx="7" fill="#CBD5E1"/>
  <rect x="544" y="254" width="136" height="24" rx="12" fill="#DBEAFE"/>
  <rect x="700" y="254" width="120" height="24" rx="12" fill="#DCFCE7"/>
  <rect x="508" y="330" width="276" height="392" rx="24" fill="#FFFFFF" stroke="#E2E8F0" stroke-width="2"/>
  <rect x="540" y="364" width="150" height="16" rx="8" fill="#0F172A"/>
  <rect x="540" y="406" width="212" height="48" rx="14" fill="#FEE2E2"/>
  <rect x="560" y="424" width="132" height="10" rx="5" fill="#991B1B"/>
  <rect x="540" y="474" width="212" height="48" rx="14" fill="#FEF3C7"/>
  <rect x="560" y="492" width="154" height="10" rx="5" fill="#92400E"/>
  <rect x="540" y="542" width="212" height="48" rx="14" fill="#DBEAFE"/>
  <rect x="560" y="560" width="118" height="10" rx="5" fill="#1D4ED8"/>
  <rect x="540" y="632" width="72" height="48" rx="10" fill="#22C55E"/>
  <rect x="632" y="592" width="72" height="88" rx="10" fill="#2563EB"/>
  <rect x="724" y="510" width="28" height="170" rx="10" fill="#A855F7"/>
  <rect x="816" y="330" width="276" height="392" rx="24" fill="#FFFFFF" stroke="#E2E8F0" stroke-width="2"/>
  <rect x="848" y="364" width="156" height="16" rx="8" fill="#0F172A"/>
  <rect x="848" y="406" width="212" height="56" rx="16" fill="#F8FAFC" stroke="#E2E8F0"/>
  <circle cx="876" cy="434" r="14" fill="#EF4444"/>
  <rect x="902" y="422" width="112" height="10" rx="5" fill="#334155"/>
  <rect x="902" y="440" width="132" height="8" rx="4" fill="#CBD5E1"/>
  <rect x="848" y="482" width="212" height="56" rx="16" fill="#F8FAFC" stroke="#E2E8F0"/>
  <circle cx="876" cy="510" r="14" fill="#F59E0B"/>
  <rect x="902" y="498" width="136" height="10" rx="5" fill="#334155"/>
  <rect x="902" y="516" width="118" height="8" rx="4" fill="#CBD5E1"/>
  <rect x="848" y="558" width="212" height="56" rx="16" fill="#F8FAFC" stroke="#E2E8F0"/>
  <circle cx="876" cy="586" r="14" fill="#22C55E"/>
  <rect x="902" y="574" width="126" height="10" rx="5" fill="#334155"/>
  <rect x="902" y="592" width="100" height="8" rx="4" fill="#CBD5E1"/>
  <rect x="848" y="652" width="212" height="26" rx="13" fill="#2563EB"/>
  <text x="108" y="804" fill="#94A3B8" font-family="Inter, Arial, sans-serif" font-size="22" font-weight="700">TURNVE Product Management Simulation Workspace</text>
</svg>
